<svg xmlns="http://www.w3.org/2000/svg" viewBox="0 0 512 512" xml:space="preserve">
  <path d="M1 195V1h512v512H1V195M305.5 48.998c-84.658 0-169.317-.02-253.975.017-19.114.008-34.468 14.873-34.487 33.595-.075 73.66-.073 147.319.006 220.979.02 17.982 15.313 33.16 33.266 33.387 6.498.082 13.001-.091 19.497.064 4.8.116 5.959 1.745 4.855 6.167-2.994 12.002-6.223 23.953-8.864 36.033-.818 3.737-.987 8.131.182 11.687 2.965 9.014 13.454 12.905 22.128 8.767 6.11-2.914 12.114-6.046 18.204-9.1 8.214 7.454 17.584 10.59 28.667 10.532 53.327-.276 106.656-.17 159.984-.017 3.484.01 7.273.925 10.4 2.472 39.88 19.735 79.596 39.805 119.583 59.32 4.001 1.952 9.88 2.106 14.234.844 8.214-2.381 11.623-10.782 9.39-19.93-2.937-12.027-5.96-24.033-8.954-36.045-1.304-5.231-.363-6.64 4.949-6.74 6.497-.12 13.003.122 19.496-.074 17.93-.543 32.764-14.905 32.822-32.691.24-74.159.14-148.319-.008-222.478-.008-3.842-1.033-7.93-2.57-11.476-6.288-14.503-17.553-21.543-33.406-21.335-9.253.122-18.51.022-27.898.022 0-9.978-.334-19.314.072-28.617.793-18.195-14.837-35.903-35.584-35.525-30.32.553-60.659.142-91.989.142z"/>
  <path fill="#FFF" d="M306 48.998c30.83 0 61.168.411 91.489-.142 20.747-.378 36.377 17.33 35.584 35.525-.406 9.303-.072 18.64-.072 28.617 9.388 0 18.645.1 27.898-.022 15.853-.208 27.118 6.832 33.406 21.335 1.537 3.546 2.562 7.634 2.57 11.476.148 74.159.248 148.32.008 222.478-.058 17.786-14.892 32.148-32.822 32.69-6.493.197-12.999-.046-19.496.075-5.312.1-6.253 1.509-4.95 6.74 2.996 12.012 6.018 24.018 8.954 36.044 2.234 9.15-1.175 17.55-9.39 19.931-4.354 1.262-10.232 1.108-14.233-.845-39.987-19.514-79.703-39.584-119.583-59.319-3.127-1.547-6.916-2.462-10.4-2.472-53.328-.153-106.657-.259-159.984.017-11.083.058-20.453-3.078-28.667-10.532-6.09 3.054-12.095 6.186-18.204 9.1-8.674 4.138-19.163.247-22.128-8.767-1.169-3.556-1-7.95-.182-11.687 2.64-12.08 5.87-24.03 8.864-36.033 1.104-4.422-.056-6.051-4.855-6.167-6.496-.155-12.999.018-19.497-.064-17.953-.227-33.246-15.405-33.266-33.387-.079-73.66-.081-147.32-.006-220.98.02-18.72 15.373-33.586 34.487-33.594 84.658-.036 169.317-.017 254.475-.017M400.998 227.5c0-45.816.018-91.633-.016-137.45-.007-8.281-.658-9.034-9.085-9.035-111.292-.02-222.584-.021-333.877.003-8.244.002-9.001.625-9.004 9.112-.025 68.642-.027 137.283.002 205.924.004 8.235.768 8.802 8.697 8.928 5.33.086 10.673.246 15.992-.017 16.759-.827 34.27 15.49 34.081 33.717-.052 5.041-.977 10.073-1.522 15.302 1.144-.554 2.3-1.102 3.446-1.673 28.408-14.162 56.846-28.264 85.197-42.538 6.523-3.284 13.174-4.868 20.52-4.85 58.811.135 117.623.086 176.435.063 8.446-.003 9.1-.772 9.118-9.01.048-22.493.016-44.984.016-68.476m48.478-82.498h-16.474v6.042c0 49.65-.463 99.306.22 148.946.287 20.904-16.15 37.487-37.458 37.244-58.973-.67-117.958-.27-176.938-.133-3.333.008-6.949.86-9.946 2.319-18.145 8.833-36.15 17.953-54.193 26.995-1.196.6-2.319 1.346-4.43 2.583h6.633c47.651 0 95.302-.052 142.952.086 4.494.013 9.495.163 13.393 2.046 24.732 11.943 49.216 24.398 73.788 36.67 6.883 3.437 13.789 6.828 21.444 10.616l-1.248-5.042c-4.757-19.25 5.761-37.957 24.766-43.183 3.453-.95 7.195-.911 10.814-1.174 7.01-.509 14.028-.908 21.042-1.352.386-7.037 1.096-14.074 1.106-21.112.088-62.312.054-124.625.049-186.937-.002-15.668.965-14.58-15.52-14.614z"/>
  <path d="M400.998 228c0 22.992.032 45.483-.016 67.975-.018 8.239-.672 9.008-9.118 9.011-58.812.023-117.624.072-176.435-.064-7.346-.017-13.997 1.567-20.52 4.85-28.351 14.275-56.79 28.377-85.197 42.54-1.145.57-2.302 1.118-3.446 1.672.545-5.229 1.47-10.26 1.522-15.302.19-18.226-17.322-34.544-34.081-33.717-5.319.263-10.662.103-15.992.017-7.929-.126-8.693-.693-8.697-8.928-.029-68.641-.027-137.282-.002-205.924.003-8.487.76-9.11 9.004-9.112 111.293-.024 222.585-.023 333.877-.003 8.427.001 9.078.754 9.085 9.036.034 45.816.016 91.633.016 137.949m-192.702 22.5c-.002 7.162-.02 14.325-.003 21.487.015 6.428 1.568 8.007 7.824 8.018 5.33.009 10.661.003 15.992.001 7.248-.002 8.598-1.402 8.597-8.742-.001-30.648.01-61.297.036-91.945.001-1.264.2-2.528.332-4.107 11.467 0 22.6.017 33.732-.006 6.664-.013 8.05-1.476 8.034-8.293-.01-4.663-.022-9.327-.005-13.991.029-7.724-1.247-9.055-8.826-9.062-10.95-.01-21.9-.003-33.03-.003-.105-1.444-.235-2.41-.237-3.376-.017-10.327.015-20.654-.027-30.981-.023-5.767-1.734-7.48-7.33-7.502-5.163-.02-10.327-.005-15.491-.005-8.7 0-9.602.926-9.594 9.74.01 10.59.002 21.181.002 32.127-12.115 0-23.578-.044-35.041.019-5.341.029-7.08 1.877-7.11 7.27-.027 4.83.028 9.66.018 14.491-.018 8.705.853 9.57 9.748 9.572h32.385c0 25.08 0 49.684-.006 75.288z"/>
  <path d="M449.97 145.002c15.99.033 15.024-1.054 15.026 14.614.005 62.312.039 124.625-.049 186.937-.01 7.038-.72 14.075-1.106 21.112-7.014.444-14.032.843-21.042 1.352-3.62.263-7.361.224-10.814 1.174-19.005 5.226-29.523 23.933-24.766 43.183l1.248 5.042c-7.655-3.788-14.561-7.179-21.444-10.616-24.572-12.272-49.056-24.727-73.788-36.67-3.898-1.883-8.899-2.033-13.393-2.046-47.65-.138-95.3-.086-142.952-.086h-6.632c2.11-1.237 3.233-1.984 4.429-2.583 18.043-9.042 36.048-18.162 54.193-26.995 2.997-1.46 6.613-2.311 9.946-2.319 58.98-.137 117.965-.537 176.938.133 21.307.243 37.745-16.34 37.458-37.244-.683-49.64-.22-99.296-.22-148.946v-6.042h16.969z"/>
  <path fill="#FFF" d="M208.299 250c.003-25.104.003-49.709.003-74.788h-32.385c-8.895-.001-9.766-.867-9.748-9.572.01-4.83-.045-9.66-.018-14.491.03-5.393 1.769-7.241 7.11-7.27 11.463-.063 22.926-.02 35.041-.02 0-10.945.007-21.536-.002-32.127-.008-8.813.894-9.738 9.594-9.739 5.164 0 10.328-.016 15.492.005 5.595.022 7.306 1.735 7.33 7.502.04 10.327.01 20.654.026 30.981.002.966.132 1.932.238 3.376 11.13 0 22.08-.008 33.03.003 7.578.007 8.854 1.338 8.825 9.062-.017 4.664-.005 9.328.005 13.991.015 6.817-1.37 8.28-8.034 8.293-11.133.023-22.265.006-33.732.006-.133 1.58-.33 2.843-.332 4.107-.026 30.648-.037 61.297-.036 91.945 0 7.34-1.349 8.74-8.597 8.742-5.33.002-10.661.008-15.992-.001-6.256-.01-7.809-1.59-7.824-8.018-.018-7.162 0-14.325.006-21.987z"/>
</svg>
